<svg xmlns="http://www.w3.org/2000/svg" width="1536" height="1024" viewBox="0 0 1536 1024" version="1.1"><path d="M 1451 1.252 C 1473.238 11.184, 1508.817 29.166, 1527.250 39.791 L 1536 44.835 1536 22.417 L 1536 0 1492.250 0.068 C 1459.166 0.119, 1449.109 0.408, 1451 1.252 M 658.500 42.041 C 595.768 44.181, 536.781 49.505, 481 58.063 C 355.236 77.356, 231.097 116.992, 138.756 167.338 C 86.305 195.935, 42.881 225.931, 8.750 257.142 L 0 265.144 0.007 335.822 L 0.015 406.500 4.482 398.679 C 23.984 364.538, 60.493 325.984, 104.500 293.056 C 208.409 215.309, 345.936 163.093, 510 139.096 C 546.415 133.770, 581.348 130.176, 629.500 126.802 C 654.125 125.076, 756.161 125.077, 782 126.803 C 921.832 136.144, 1027.383 161.758, 1121 209.067 C 1168.378 233.010, 1202.837 256.816, 1231.583 285.465 C 1271.214 324.960, 1295.102 367.236, 1301.953 410 C 1308.010 447.806, 1298.957 490.446, 1277.217 526.500 C 1241.718 585.372, 1167.406 634.853, 1060 671.135 C 987.537 695.613, 907.770 709.909, 809 716.121 C 785.433 717.603, 718.265 717.577, 689 716.074 C 508.261 706.792, 360.137 658.892, 290.942 587.349 C 273.146 568.950, 263.583 552.955, 257.850 532 C 254.913 521.267, 254.243 501.304, 256.429 489.688 C 264.157 448.633, 295.692 411.644, 352.155 377.406 C 414.567 339.561, 508.153 310.456, 605.500 298.617 C 655.216 292.570, 670.696 291.882, 749.218 292.229 C 794.905 292.431, 812.536 292.178, 818.500 291.235 C 827.536 289.806, 833 288.227, 833 287.046 C 833 284.585, 809.830 277.711, 787.500 273.548 C 757.037 267.868, 733.460 265.959, 692.500 265.857 C 584.208 265.585, 463.773 287.230, 371 323.638 C 349.658 332.014, 312.305 350.489, 294.500 361.476 C 236.582 397.217, 203.256 438.811, 192.876 488.312 C 190.150 501.314, 189.959 522.586, 192.462 534.500 C 201.861 579.239, 234.412 620.389, 288.971 656.504 C 352.272 698.406, 437.244 727.945, 549 746.899 C 617.988 758.600, 675.412 763.708, 749 764.690 C 855.984 766.117, 949.223 756.163, 1037.500 733.890 C 1067.440 726.336, 1113.078 711.099, 1143.989 698.335 C 1163.648 690.218, 1202.158 671.184, 1216.500 662.496 C 1316.194 602.102, 1368.854 535.927, 1381.693 454.904 C 1384.527 437.020, 1384.063 405.081, 1380.693 386 C 1366.524 305.791, 1311.258 233.231, 1217.500 171.741 C 1117.388 106.083, 995.135 65.171, 852.500 49.592 C 789.750 42.738, 718.899 39.980, 658.500 42.041 M 0 693.433 L 0 760.865 9.750 769.704 C 63.928 818.821, 132.724 863.154, 212 900.037 C 319.045 949.840, 424.338 979.828, 564.500 1000.431 C 680.145 1017.431, 811.589 1020.977, 936.500 1010.469 C 1065.981 999.575, 1203.296 971.103, 1304.609 934.141 C 1384.567 904.970, 1453.162 870.978, 1519.087 827.855 L 1535.674 817.005 1536.336 774.253 C 1536.700 750.739, 1536.891 707.425, 1536.760 678 C 1536.535 627.140, 1536.510 626.482, 1536.250 664.663 L 1535.977 704.826 1526.239 714.048 C 1508.075 731.248, 1479.250 753.223, 1451.258 771.208 C 1337.804 844.109, 1183.065 895.221, 1011.500 916.466 C 938.437 925.513, 889.426 928.518, 816 928.452 C 701.898 928.350, 606.470 919.158, 505.315 898.528 C 335.823 863.959, 179.120 794.459, 76.008 708.122 C 49.266 685.732, 20.365 654.787, 5.146 632.250 C 2.825 628.813, 0.717 626, 0.463 626 C 0.208 626, 0 656.345, 0 693.433 M 0.473 693.500 C 0.473 730.900, 0.597 746.055, 0.750 727.177 C 0.902 708.299, 0.902 677.699, 0.749 659.177 C 0.597 640.655, 0.473 656.100, 0.473 693.500 M 1523.533 996.493 C 1516.951 1001.753, 1505.776 1009.982, 1498.700 1014.779 L 1485.835 1023.500 1510.566 1023.768 C 1524.169 1023.915, 1535.466 1023.867, 1535.672 1023.661 C 1535.878 1023.456, 1535.923 1015.107, 1535.773 1005.108 L 1535.500 986.930 1523.533 996.493" stroke="none" fill="#7377bb" fill-rule="evenodd"/><path d="M 0 132.572 L 0 265.144 8.750 257.142 C 61.331 209.059, 137.767 162.676, 219.380 129.328 C 318.610 88.781, 429.432 61.805, 547 49.579 C 685.890 35.136, 826.895 40.126, 944 63.627 C 1074.444 89.806, 1186.535 140.596, 1272 212.250 C 1287.221 225.012, 1311.385 249.610, 1323.325 264.500 C 1353.903 302.632, 1373.176 343.450, 1380.693 386 C 1384.063 405.081, 1384.527 437.020, 1381.693 454.904 C 1368.854 535.927, 1316.194 602.102, 1216.500 662.496 C 1202.158 671.184, 1163.648 690.218, 1143.989 698.335 C 1070.384 728.727, 991.782 748.083, 902 757.926 C 821.696 766.730, 728.601 767.285, 644 759.463 C 524.788 748.442, 411.665 720.796, 339 684.926 C 254.533 643.230, 204.519 591.889, 192.462 534.500 C 189.959 522.586, 190.150 501.314, 192.876 488.312 C 203.256 438.811, 236.582 397.217, 294.500 361.476 C 312.305 350.489, 349.658 332.014, 371 323.638 C 463.773 287.230, 584.208 265.585, 692.500 265.857 C 733.460 265.959, 757.037 267.868, 787.500 273.548 C 809.830 277.711, 833 284.585, 833 287.046 C 833 288.227, 827.536 289.806, 818.500 291.235 C 812.536 292.178, 794.905 292.431, 749.218 292.229 C 670.696 291.882, 655.216 292.570, 605.500 298.617 C 442.232 318.474, 306.786 382.367, 267.623 458 C 257.889 476.800, 254.495 491.516, 255.284 511.500 C 256.412 540.054, 267.017 562.613, 290.942 587.349 C 360.137 658.892, 508.261 706.792, 689 716.074 C 718.265 717.577, 785.433 717.603, 809 716.121 C 907.770 709.909, 987.537 695.613, 1060 671.135 C 1142.671 643.209, 1207.574 606.393, 1247.555 564.749 C 1274.672 536.502, 1292.502 504.192, 1299.841 470 C 1311.552 415.441, 1296.753 363.432, 1254.457 310.500 C 1243.286 296.521, 1220.687 273.969, 1206.593 262.737 C 1159.856 225.489, 1090.131 189.955, 1022 168.661 C 948.407 145.660, 876.470 133.114, 782 126.803 C 756.161 125.077, 654.125 125.076, 629.500 126.802 C 480.179 137.266, 369.596 160.861, 260.169 205.606 C 205.976 227.765, 148.932 259.811, 104.500 293.056 C 60.493 325.984, 23.984 364.538, 4.482 398.679 L 0.015 406.500 0.007 515.702 L -0 624.904 4.707 631.702 C 72.546 729.682, 227.416 822.505, 411.500 875.518 C 511.210 904.232, 614.705 920.551, 739 927.155 C 770.547 928.832, 863.404 928.860, 891.500 927.202 C 1050.603 917.811, 1178.106 892.778, 1297.500 847.490 C 1389.428 812.620, 1475.478 762.371, 1526.528 713.749 L 1536.417 704.330 1536.467 351.915 C 1536.495 158.087, 1536.393 9.785, 1536.240 22.357 C 1536.022 40.294, 1535.697 45, 1534.731 44.224 C 1529.495 40.017, 1476.442 12.551, 1457.205 4.089 L 1447.910 -0 723.955 -0 L 0 0 0 132.572 M 0.485 133 C 0.485 205.875, 0.604 235.688, 0.750 199.250 C 0.895 162.813, 0.895 103.188, 0.750 66.750 C 0.604 30.313, 0.485 60.125, 0.485 133 M 0.483 516 C 0.483 576.775, 0.603 601.637, 0.750 571.250 C 0.897 540.862, 0.897 491.137, 0.750 460.750 C 0.603 430.362, 0.483 455.225, 0.483 516 M 0 892.433 L 0 1024 742.582 1024 L 1485.164 1024 1498.447 1014.963 C 1505.753 1009.992, 1517.079 1001.651, 1523.615 996.427 L 1535.500 986.928 1536.034 1005.214 C 1536.328 1015.271, 1536.560 964.100, 1536.550 891.500 C 1536.540 818.900, 1536.405 772.395, 1536.251 788.156 L 1535.970 816.812 1519.235 827.759 C 1424.559 889.688, 1318.202 935.841, 1201 965.857 C 1041.065 1006.817, 871.860 1023.167, 703 1013.977 C 550.853 1005.696, 402.604 976.245, 284.644 930.865 C 173.271 888.019, 79.833 833.240, 9.750 769.704 L 0 760.865 0 892.433 M 0.485 892.500 C 0.485 965.100, 0.604 994.652, 0.750 958.172 C 0.895 921.692, 0.895 862.292, 0.750 826.172 C 0.604 790.052, 0.485 819.900, 0.485 892.500" stroke="none" fill="#9ba3cc" fill-rule="evenodd"/></svg>