<svg version="1.1" xmlns="http://www.w3.org/2000/svg" style="display: block;" viewBox="0 0 2048 2048" width="1024" height="1024" preserveAspectRatio="none">
<path transform="translate(0,0)" fill="rgb(0,0,0)" d="M 755.005 609.683 C 755.563 610.005 756.121 610.328 756.678 610.65 C 765.938 639.829 774.707 677.648 782.39 706.577 C 786.146 720.721 789.851 740.456 794.374 747.662 L 795.351 747.575 C 801.544 736.565 807.559 721.763 813.022 709.892 L 843.189 645.378 C 869.661 646.182 897.829 644.6 924.868 645.108 C 935.476 664.449 946.176 692.989 958.267 710.783 C 969.037 692.066 976.251 681.341 992.448 667.098 C 1028.87 635.068 1081.82 624.952 1128.44 636.219 C 1135.59 637.945 1146.02 640.807 1153.02 641.303 L 1153.62 639.134 C 1154.13 638.734 1154.65 638.335 1155.17 637.935 C 1229.07 638.213 1345.59 637.346 1416.13 638.106 C 1416.5 663.93 1417.24 688.729 1418.5 714.506 C 1419.47 734.271 1418.69 752.844 1421.44 772.917 C 1442.8 739.893 1468.1 706.739 1492.11 675.575 C 1500.42 664.793 1511.8 648.271 1520.25 639.01 C 1572.29 639.127 1633.06 647.569 1685.32 648.048 C 1665.57 681.236 1645.28 714.104 1624.47 746.639 C 1631.85 751.571 1637.93 755.329 1644.06 761.759 C 1650.81 754.276 1660.92 740.226 1667.6 731.708 C 1683.3 711.697 1699.1 691.776 1715.03 671.946 C 1720.59 664.977 1733.72 647.612 1739.85 643.002 L 1868.57 642.65 C 1869.43 693.741 1868.55 744.903 1869.43 795.897 C 1877.14 796.12 1885.23 796.047 1892.98 796.099 C 1893.03 843.887 1893.92 891.296 1893.2 939.08 C 1885.28 939.051 1877.35 939.184 1869.44 939.48 C 1868.69 956.312 1869.05 975.271 1869 992.261 C 1853.65 992.102 1836.73 992.862 1821.11 992.939 C 1793.89 992.838 1766.67 992.95 1739.45 993.274 C 1800.4 1038.21 1808.67 1132.2 1758.72 1188.59 C 1739.24 1210.36 1713.72 1225.84 1685.42 1233.07 C 1654.25 1240.87 1600.36 1238.17 1566.11 1238.15 L 1400.99 1238.1 C 1371.56 1238.11 1330.03 1237.27 1301.52 1239.13 C 1304.23 1244.62 1307.16 1256.18 1309.09 1262.51 C 1312.31 1273.22 1315.9 1283.81 1319.84 1294.27 C 1322.86 1304.6 1326.03 1319.53 1330.79 1329.01 C 1332.25 1331.93 1332.14 1329.32 1331.78 1332.38 C 1308.52 1324.88 1286.84 1315.34 1264.05 1306.41 L 1148.81 1261.28 C 1134.63 1255.72 1116.04 1247.42 1102.22 1242.83 L 1100.96 1242.42 C 1070.84 1294.95 1038.26 1347.56 1007.49 1399.81 L 908.431 1261.31 C 905.716 1257.46 894.315 1240.01 890.773 1239.29 L 760.974 1332.96 C 739.366 1348.54 715.462 1364.13 694.824 1380.6 C 698.552 1372.09 704.252 1345.1 706.59 1334.99 L 730.857 1227.12 C 706.021 1239.84 670.437 1243.04 643.017 1237.44 C 637.304 1236.27 625.761 1231.12 620.777 1232.24 C 620.404 1234.86 620.436 1234.72 619.186 1237.06 C 616.094 1238.6 535.651 1237.9 524.048 1237.9 L 332.623 1237.82 L 283.041 1237.58 C 273.094 1237.53 259.293 1237 249.734 1238.34 C 251.196 1209.89 250.178 1173.2 250.186 1144.06 L 250.153 971.147 C 230.803 957.61 209.463 944.953 191.505 929.875 C 197.22 922.663 205.917 914.863 212.371 908.134 C 229.435 890.343 249.631 872.815 265.992 854.646 C 257.258 846.28 251.518 839.5 245.246 829.038 C 226.866 798.332 221.611 761.524 230.663 726.901 C 248.461 658.671 325.925 617.942 392.827 624.786 C 407.365 626.273 423.174 629.801 437.372 633.449 C 447.155 635.963 456.887 642.164 466.98 644.837 C 470.214 642.747 474.549 622.086 475.982 616.679 C 484.527 625.356 496.009 634.753 505.394 642.827 L 563.684 692.315 C 579.283 705.631 608.026 732.984 623.177 743.689 C 626.434 741.568 639.564 727.243 643.311 723.32 L 687.99 676.799 C 703.065 661.439 718.219 646.157 733.451 630.953 C 740.537 623.892 748.444 616.992 755.005 609.683 z"/>
<path transform="translate(0,0)" fill="rgb(228,12,21)" d="M 748.744 636.883 C 752.355 642.142 785.474 777.128 790.642 794.226 C 811.642 753.861 833.587 701.995 853.322 660.249 C 870.372 661.15 897.911 660.125 915.841 660.074 C 930.306 685.462 947.252 724.362 960.812 751.768 C 963.457 742.123 965.935 732.6 969.646 723.381 C 992.484 666.641 1054.15 640.556 1112.49 648.113 C 1133.17 650.792 1148.21 656.245 1167.04 664.015 C 1166.61 660.237 1166.45 659.127 1166.74 655.387 C 1167.21 654.942 1167.67 654.497 1168.14 654.053 C 1218.9 652.524 1361.3 652.959 1401.38 653.02 C 1404.34 714.818 1405.32 778.793 1407.45 840.911 C 1427.17 785.523 1448.65 757.955 1483.6 711.797 L 1526.75 654.286 C 1535.13 655.619 1559.22 656.169 1569.17 656.706 L 1658.75 661.555 C 1645.4 688.372 1619.08 724.555 1602.99 752.998 C 1623.5 762.695 1630.26 769.062 1645.54 785.4 C 1656.5 769.209 1674.03 748.366 1686.54 732.578 C 1706.06 707.613 1725.73 682.756 1745.52 658.008 C 1781.58 657.727 1817.64 657.687 1853.69 657.89 C 1854.49 706.433 1852.28 762.566 1854.69 810.04 C 1862.81 809.981 1869.9 810.513 1878.02 811.094 L 1878.35 924.176 L 1854.35 924.532 C 1853.75 941.199 1854.24 960.059 1854.12 977.025 C 1816.65 976.984 1779.02 978.171 1741.54 977.915 C 1720.59 977.771 1719.95 978.046 1703.14 990.678 C 1817.2 1038.19 1790.77 1199.11 1673.52 1219.85 C 1639.22 1225.91 1593.53 1223.11 1557.87 1223.11 L 1354.26 1223.17 C 1329.58 1223.03 1304.9 1223.03 1280.22 1223.17 C 1289.3 1250.79 1299.59 1279.46 1307.75 1307.17 C 1287.56 1297.92 1252.8 1285.35 1231.44 1276.97 L 1094.05 1223.28 L 1006.2 1372.67 C 984.945 1341.71 961.935 1310.56 940.206 1279.77 C 926.343 1260.13 910.099 1236.35 895.35 1217.74 C 879.854 1227.7 860.349 1242.99 844.922 1254.06 C 803.7 1284.11 762.229 1313.82 720.513 1343.17 C 729.594 1295.82 742.535 1244.91 752.752 1197.15 C 739.757 1203.88 727.159 1213.04 713.038 1217.58 C 671.167 1231.04 642.28 1224.32 604.743 1206.64 C 604.514 1211.76 604.497 1217.11 604.401 1222.26 C 570.957 1223.34 530.586 1222.24 496.553 1222.22 L 265.216 1222.2 C 264.053 1166.02 265.914 1109.18 265.163 1052.92 C 264.848 1029.37 264.759 1004.41 265.831 980.931 C 275.113 980.766 284.396 980.722 293.678 980.799 C 266.931 962.908 241.145 947.455 214.82 928.006 C 237.167 903.57 265.161 878.671 288.5 854.257 C 206.924 784.676 235.62 675.032 337.02 645.276 C 387.972 630.324 433.411 643.495 478.311 669.428 C 480.008 660.803 482.004 652.24 484.294 643.753 L 569.645 717.381 C 586.292 731.654 609.556 750.711 624.531 765.953 C 635.7 752.124 655.086 733.409 667.981 720.009 C 694.758 692.161 721.679 664.452 748.744 636.883 z"/>
<path transform="translate(0,0)" fill="rgb(0,0,0)" d="M 368.727 658.428 C 408.597 656.15 464.262 669.653 487.107 705.176 C 489.375 695.236 491.58 685.282 493.722 675.314 C 506.586 684.871 524.03 700.904 536.652 711.797 C 566.401 737.428 595.887 763.363 625.103 789.599 C 663.115 751.815 701.64 708.019 740.042 671.561 C 751.93 711.973 760.922 756.671 771.715 797.562 C 775.8 813.041 779.775 835.186 784.895 849.405 L 835.054 741.075 C 844.446 720.91 854.527 697.744 864.862 678.277 C 878.146 677.781 891.442 677.673 904.732 677.952 C 911.567 689.579 921.692 711.632 927.813 724.308 C 939.828 748.928 951.619 773.657 963.185 798.492 C 970.128 795.984 973.708 795.042 980.943 793.443 C 979.795 784.906 978.822 776.67 978.958 768.121 C 980.294 684.515 1068.62 647.613 1140.2 673.064 C 1156.85 678.986 1167.01 685.353 1181.07 695.402 C 1181.58 687.372 1182.28 679.356 1183.18 671.36 C 1210.49 672.667 1247.28 670.955 1276.1 671.152 C 1277.28 705.295 1276.25 741.425 1275.92 775.721 L 1300.91 775.541 L 1302.29 670.737 C 1326.76 670.161 1359.56 669.463 1383.8 670.908 C 1385.34 758.316 1389.2 848.062 1391.88 935.612 C 1391.91 945.939 1392.5 955.534 1393.11 965.815 L 1296.89 965.887 C 1296.6 943.25 1296.51 902.133 1295.76 877.433 C 1295.31 876.897 1294.85 876.362 1294.4 875.827 C 1291.3 875.603 1290.83 875.374 1287.79 876.217 C 1283.85 882.513 1285.51 960.412 1285.65 973.579 C 1257.97 972.305 1222.9 973.141 1194.82 973.034 C 1191.2 967.236 1187.86 962.317 1183.92 956.725 C 1175.29 960.945 1167.21 966.234 1157.98 969.911 C 1129.18 981.37 1097.5 980.255 1067.39 975.7 C 1058.82 974.403 1050.79 971.088 1041.19 969.727 C 1037.52 971.183 1042.33 972.183 1039.5 976.97 C 1031.86 977.73 1015.14 977.073 1006.51 977.049 L 938.177 976.99 C 933.275 966.329 928.524 955.599 923.925 944.803 L 868.05 944.865 L 855.642 976.313 C 817.784 975.47 764.31 976.99 725.006 975.868 C 724.484 975.361 723.963 974.855 723.441 974.349 C 723.058 971.531 723.156 969.395 721.306 967.357 C 715.539 966.118 703.809 967.103 697.438 967.385 C 696.075 952.584 688.177 920.265 684.352 905.319 C 674.572 921.109 662.577 937.689 652.174 953.324 C 646.795 961.409 634.339 980.258 628.091 986.963 C 614.18 969.221 596.897 939.587 583.025 924.419 C 581.652 925.33 581.798 925.508 581.057 926.962 C 576.379 923.667 572.236 918.763 568.27 914.524 C 566.087 935.178 564.54 955.895 563.63 976.645 C 532.273 975.725 500.039 977.006 467.975 976.063 L 460.874 960.829 C 409.127 988.79 345.216 982.33 294.006 955.913 C 276.386 946.824 259.957 934.424 243.925 922.782 C 248.666 918.717 253.153 914.023 257.652 909.657 C 274.975 892.848 292.363 876.172 309.327 858.996 C 315.32 862.515 343.488 878.104 348.021 870.525 C 346.762 865.345 335.625 860.126 330.71 857.975 C 218.551 808.878 247.697 667.466 368.727 658.428 z"/>
<path transform="translate(0,0)" fill="rgb(251,215,5)" d="M 728.883 707.927 C 729.731 708.894 770.265 886.66 773.78 902.931 C 765.953 917.65 758.493 932.261 750.327 946.82 L 713.53 947.103 L 698.915 876.98 C 696.625 866.239 693.724 850.69 690.338 840.646 C 667.289 874.355 644.529 908.261 622.061 942.36 C 595.953 909.284 570.569 868.165 543.956 835.468 C 542.232 847.07 540.433 858.66 538.56 870.238 C 534.552 895.472 531.237 921.707 526.659 946.704 C 505.91 946.68 483.1 947.096 462.548 945.874 C 466.769 911.956 475.01 870.717 481.339 837.003 L 504.863 708.598 C 543.675 740.948 587.375 781.799 624.781 816.301 C 659.319 779.966 694.648 744.603 728.883 707.927 z"/>
<path transform="translate(0,0)" fill="rgb(251,215,5)" d="M 1321.3 688.483 L 1365.7 688.706 C 1366 773.552 1371.06 861.536 1372.98 946.567 C 1354.2 946.396 1335.42 946.358 1316.64 946.453 L 1316.03 849.036 L 1254.66 850.144 C 1253.41 880.315 1253.21 913.703 1253.03 943.931 L 1227.57 943.9 C 1213.83 944.01 1200.09 943.932 1186.34 943.666 C 1187.06 921.006 1188.97 897.655 1190.04 874.894 C 1192.96 813.219 1196.78 751.479 1199.18 689.787 L 1257.92 689.284 L 1256.38 793.828 C 1277.42 793.532 1298.47 793.507 1319.51 793.753 C 1319.93 770.728 1320.2 747.701 1320.33 724.673 C 1320.42 715.476 1320.09 696.597 1321.3 688.483 z"/>
<path transform="translate(0,0)" fill="rgb(251,215,5)" d="M 367.002 678.396 C 400.644 675.2 436.939 684.524 463.158 706.165 C 452.105 722.418 440.953 738.603 429.701 754.719 C 415.387 743.7 400.306 735.415 381.939 734.842 C 367.014 734.377 349.74 741.933 350.933 759.073 C 352.723 784.779 394.185 788.542 412.702 797.03 C 424.95 801.583 435.787 807.345 445.702 816.003 C 475.448 841.915 471.023 897.562 445.049 924.353 C 424.492 945.555 398.845 951.559 370.412 952.287 C 334.559 952.15 302.045 941.874 273.345 920.082 C 286.146 907.381 300.968 892.036 314.433 880.447 C 332.169 889.046 347.54 896.144 367.941 895.855 C 385.216 895.61 403.477 888.678 401.455 867.987 C 399.292 849.084 376.518 843.748 361.449 839.403 C 336.517 832.3 309.102 824.006 293.38 801.759 C 279.598 781.521 278.523 753.056 287.044 730.562 C 289.363 724.866 292.864 719.445 296.58 714.572 C 313.831 691.951 339.393 681.118 367.002 678.396 z"/>
<path transform="translate(0,0)" fill="rgb(251,215,5)" d="M 877.137 695.113 C 882.388 695.226 887.903 695.578 893.178 695.83 C 906.568 725.482 921.518 754.635 934.773 784.339 C 958.763 838.095 986.733 891.517 1007.55 946.543 C 985.184 946.888 962.813 947.018 940.443 946.935 C 934.961 936.586 930.098 923.46 925.977 912.452 C 915.188 912.886 901.996 912.528 891.031 912.471 C 874.838 912.68 858.264 912.48 842.039 912.463 C 837.99 923.719 833.199 935.546 828.876 946.765 L 762.103 946.724 C 769.599 923.542 792.351 877.092 803.177 853.649 C 827.419 800.613 852.073 747.766 877.137 695.113 z"/>
<path transform="translate(0,0)" fill="rgb(0,0,0)" d="M 885.474 809.855 C 890.299 816.028 904.586 855.678 908.246 865.337 L 886.5 865.479 L 862.973 865.646 C 870.325 849.338 878.656 826.842 885.474 809.855 z"/>
<path transform="translate(0,0)" fill="rgb(251,215,5)" d="M 1080.46 685.372 C 1110.06 681.457 1144.23 691.141 1167.76 709.342 C 1158.37 725.075 1147.77 742.101 1139.27 758.183 C 1123.71 746.968 1090.6 732.832 1074.61 749.217 C 1071.29 752.569 1069.47 757.123 1069.56 761.84 C 1069.88 783.368 1106.51 791.683 1124.49 797.731 C 1179.7 816.303 1191.29 884.637 1152.73 925.408 C 1132.7 946.582 1105.46 950.986 1075.32 950.907 C 1056.81 949.231 1037.9 946.407 1021.25 937.604 C 1010.2 931.762 1006.52 926.332 1002.3 915.281 C 1008.36 903.878 1024.65 883.863 1033.03 873.589 C 1047.68 886.299 1068.08 896.968 1088.04 896.699 C 1093.7 896.647 1105.19 893.296 1108.46 888.257 C 1132.36 851.439 1071.59 843.593 1049.51 834.879 C 1024.38 825.165 1003.74 807.907 1000.67 779.558 C 994.963 726.94 1028.69 690.758 1080.46 685.372 z"/>
<path transform="translate(0,0)" fill="rgb(0,0,0)" d="M 1415.26 913.847 C 1418.7 917.344 1421.25 922.946 1424.16 927.014 C 1433.86 940.57 1445 953.016 1458.7 962.645 C 1539.33 1019.31 1667.64 969.922 1727.73 1027.96 C 1746.65 1046.23 1756.36 1071.19 1756.54 1097.33 C 1756.72 1123.63 1748.03 1148.64 1729.29 1167.49 C 1714.5 1182.38 1693.55 1193.13 1672.84 1196.51 C 1652.53 1199.83 1629.6 1198.02 1608.95 1198.04 L 1490.08 1198.01 L 1062.4 1198.2 C 1060.23 1191.42 1057.47 1184.28 1055.01 1177.56 C 1052.96 1184.43 1049.9 1191.38 1047.13 1198.03 L 1000.42 1198.09 C 996.777 1189.09 992.975 1180.15 989.02 1171.28 L 981.231 1198.21 C 954.369 1197.82 926.862 1198.09 899.927 1198.01 L 899.816 1177.27 C 896.5 1179.97 893.079 1182.55 889.561 1184.99 C 856.638 1207.69 806.41 1209.71 771.191 1191.65 C 752.577 1182.11 742.961 1172.16 731.214 1155.3 L 729.803 1183.91 C 714.266 1201.2 681.477 1203.12 659.951 1202 C 628.353 1200.36 604.916 1186.73 584.194 1163.5 C 584.048 1174.96 584.586 1186.63 584.967 1198.1 L 379.393 1198.16 C 373.984 1190.7 368.495 1181.84 362.984 1174.04 C 360.136 1177.07 361.319 1192.63 361.409 1197.99 L 287.062 1198 L 286.931 1000.93 C 303.375 1001.23 320.736 1000.83 337.184 1000.78 C 386.075 1000.61 419.268 997.662 439.715 1048.94 C 440.234 1033.28 439.756 1016.17 439.6 1000.4 C 482.807 1001.59 527.6 1000.68 571.009 1000.96 L 571.032 1058.68 L 574.008 1053.57 C 589.509 1027.27 609.929 1009.16 640.162 1001.55 C 669.66 993.901 700.982 998.159 727.367 1013.41 C 726.784 1025.31 727.09 1039.66 727.081 1051.75 C 741.69 1029.51 754.728 1013.8 780.442 1004.79 C 839.86 983.973 899.943 1006.16 922.392 1065.47 C 926.337 1044.95 929.659 1021.14 932.912 1000.38 C 951.372 1001.84 980.934 1000.91 1000.21 1000.7 L 1022.89 1062.96 C 1030.42 1046.01 1039.36 1018.73 1045.86 1000.71 C 1067.76 1000.92 1089.66 1001 1111.56 1000.94 C 1116.64 1028.97 1123.51 1078.52 1130.36 1104.79 C 1133.31 1076.75 1131.76 1029.12 1131.32 1000.14 L 1200.63 1000.05 C 1234.69 1000.22 1253.09 1004.27 1276.96 1028.36 C 1276.77 1019.11 1276.89 1009.54 1276.88 1000.27 C 1324.12 1000.81 1371.36 1000.76 1418.6 1000.1 C 1416.93 972.08 1417.5 941.423 1415.26 913.847 z"/>
<path transform="translate(0,0)" fill="rgb(254,254,254)" d="M 809.89 1013.91 C 857.43 1007.24 901.356 1040.42 907.942 1087.97 C 914.528 1135.53 881.274 1179.4 833.712 1185.91 C 786.26 1192.4 742.513 1159.24 735.943 1111.8 C 729.372 1064.36 762.46 1020.55 809.89 1013.91 z"/>
<path transform="translate(0,0)" fill="rgb(0,0,0)" d="M 820.028 1049.14 C 847.746 1047.92 871.209 1069.39 872.438 1097.11 C 873.666 1124.82 852.195 1148.29 824.478 1149.52 C 796.757 1150.75 773.287 1129.28 772.059 1101.56 C 770.83 1073.84 792.307 1050.37 820.028 1049.14 z"/>
<path transform="translate(0,0)" fill="rgb(254,254,254)" d="M 1058.99 1019.21 C 1071.39 1019.14 1083.79 1019.17 1096.19 1019.29 C 1098.12 1036.43 1102.64 1059.23 1105.55 1076.83 L 1122.16 1179.19 L 1083.29 1179.59 C 1080.87 1156 1076.95 1130.42 1073.72 1106.76 C 1072.37 1098.24 1071.27 1089.68 1070.41 1081.1 C 1057.52 1113.77 1043.5 1146.73 1031.24 1179.48 C 1025.49 1179.54 1019.73 1179.56 1013.97 1179.54 C 1003 1148.41 988.353 1113.11 976.323 1081.93 C 970.423 1109.9 967.061 1149.19 961.629 1179.19 L 923.702 1179.36 C 933.132 1128.69 940.419 1070.96 948.791 1019.34 C 961.659 1019.36 974.527 1019.28 987.394 1019.12 C 996.007 1047.4 1011.86 1087.4 1022.77 1115.23 C 1027.3 1105.01 1032.32 1090.08 1036.3 1079.35 L 1058.99 1019.21 z"/>
<path transform="translate(0,0)" fill="rgb(254,254,254)" d="M 1601.66 1019.03 C 1618.57 1018.89 1636.49 1019.29 1653.25 1018.82 C 1728.18 1016.68 1765.52 1100.56 1714.29 1155.58 C 1683.91 1185.34 1641.8 1179.49 1601.94 1179.17 C 1602.16 1125.79 1602.07 1072.41 1601.66 1019.03 z"/>
<path transform="translate(0,0)" fill="rgb(0,0,0)" d="M 1639 1051.22 C 1656.37 1050.98 1669.5 1049.69 1683.76 1062.28 C 1693.38 1070.91 1698.47 1083.2 1699.09 1095.99 C 1699.84 1111.27 1695.9 1121.98 1686.07 1133.21 C 1669.93 1146.73 1658.37 1145.41 1638.77 1145.5 L 1639 1051.22 z"/>
<path transform="translate(0,0)" fill="rgb(254,254,254)" d="M 353.459 1019.52 C 379.589 1018.91 410.909 1020.05 420.06 1051.57 C 428.478 1080.57 416.778 1104.84 387.463 1115.11 C 399.216 1134.46 419.442 1158.99 432.94 1179.13 L 389.318 1179.45 C 385.13 1172.78 380.626 1166.05 376.316 1159.43 C 370.961 1152.02 351.803 1119.33 344.449 1119.3 C 340.665 1123.86 342.188 1169.8 342.2 1179.14 L 305.528 1179.29 C 304.813 1126.71 305.457 1072.4 305.396 1019.67 C 321.273 1019.43 337.546 1019.56 353.459 1019.52 z"/>
<path transform="translate(0,0)" fill="rgb(0,0,0)" d="M 342.27 1048.4 C 353.676 1048.12 365.37 1046.88 375.392 1053.57 C 388.03 1062 384.658 1075.98 376.739 1086.67 C 365.468 1094.41 355.632 1092.75 342.246 1092.49 L 342.27 1048.4 z"/>
<path transform="translate(0,0)" fill="rgb(254,254,254)" d="M 1150.96 1018.85 C 1163.68 1018.72 1176.4 1018.66 1189.12 1018.66 C 1210.47 1018.63 1232.51 1016.66 1250.84 1030.28 C 1272.83 1046.61 1275.44 1082.3 1258.44 1103.18 C 1246.75 1117.53 1232.89 1121.27 1215.24 1122.93 L 1187.45 1123.23 C 1187.27 1141.88 1187.22 1160.54 1187.31 1179.19 L 1150.76 1179.26 L 1150.96 1018.85 z"/>
<path transform="translate(0,0)" fill="rgb(0,0,0)" d="M 1187.26 1048.38 C 1199.32 1048.09 1213.11 1046.55 1223.79 1053.4 C 1236.82 1061.75 1232.84 1076.76 1224.84 1087.53 C 1213.89 1094.95 1200.41 1092.96 1187.3 1092.57 C 1187.16 1077.84 1187.15 1063.11 1187.26 1048.38 z"/>
<path transform="translate(0,0)" fill="rgb(254,254,254)" d="M 522.668 1019.5 C 532.476 1019.45 542.285 1019.49 552.093 1019.62 L 552.075 1049.84 L 497.148 1049.9 C 496.906 1060.37 497.136 1071.88 497.159 1082.44 L 551.078 1082.65 L 550.995 1113.22 C 533.072 1113.21 515.15 1113.33 497.229 1113.58 C 496.86 1124.69 497.104 1137.19 497.116 1148.41 L 539.036 1148.31 L 556.756 1148.38 L 556.613 1179.15 L 459.168 1179.35 L 459.249 1019.67 C 480.063 1019.3 501.787 1019.54 522.668 1019.5 z"/>
<path transform="translate(0,0)" fill="rgb(254,254,254)" d="M 1478.61 1019.05 L 1572.04 1019.02 L 1572.14 1049.77 L 1515.95 1049.94 C 1515.8 1060.65 1515.95 1071.76 1515.97 1082.5 L 1569.09 1082.62 L 1569.1 1113.29 C 1551.37 1113.27 1533.65 1113.36 1515.92 1113.57 L 1515.81 1126.27 L 1515.99 1148.49 L 1572.99 1148.31 L 1572.93 1179.17 L 1478.63 1179.27 L 1478.61 1019.05 z"/>
<path transform="translate(0,0)" fill="rgb(254,254,254)" d="M 657.695 1016.33 C 675.875 1014.5 690.163 1016.17 707.49 1021.7 C 707.838 1035.04 708.325 1048.37 708.95 1061.7 C 664.923 1034.22 613.061 1054.06 623.228 1112.53 C 628.725 1144.14 671.007 1156.1 697.266 1144.21 C 701.829 1142.15 705.32 1138.85 710.433 1137.39 C 711.469 1139.42 710.963 1144.82 710.919 1147.47 L 709.195 1175.93 C 679.527 1188.3 642.063 1187.21 615.542 1167.85 C 598.253 1155.36 586.688 1136.47 583.433 1115.39 C 575.667 1063.57 606.541 1024.16 657.695 1016.33 z"/>
<path transform="translate(0,0)" fill="rgb(254,254,254)" d="M 1364.1 1019.11 L 1401.34 1019.36 L 1401.29 1148.25 L 1454.99 1148.17 L 1454.94 1179.19 L 1364.29 1179.24 L 1364.1 1019.11 z"/>
<path transform="translate(0,0)" fill="rgb(254,254,254)" d="M 1295.32 1019.47 C 1307.87 1019.27 1320.43 1019.28 1332.98 1019.49 L 1332.95 1179.09 C 1320.58 1179.34 1307.66 1179.18 1295.25 1179.21 L 1295.32 1019.47 z"/>
<path transform="translate(0,0)" fill="rgb(0,0,0)" d="M 1535.28 672.896 C 1563.19 673.424 1599.83 675.941 1627.73 677.683 C 1624.18 684.783 1616.29 696.838 1611.94 703.88 C 1599.4 723.984 1586.63 743.94 1573.62 763.742 C 1574.67 764 1575.71 764.27 1576.75 764.551 C 1612.13 774.057 1624.95 784.513 1643.06 815.979 C 1656.6 800.236 1670.04 781.751 1683.02 765.324 C 1706.79 735.778 1730.25 705.984 1753.39 675.945 L 1835.59 675.766 C 1836.61 725.312 1835.64 777.161 1835.97 827.045 C 1843.95 827.018 1851.93 827.272 1859.9 827.807 C 1860.28 853.861 1860.02 880.542 1860.04 906.643 C 1854.41 906.308 1841.13 904.769 1836.64 907.479 C 1835.4 908.228 1835.63 910.986 1835.45 912.925 L 1835.77 959.656 C 1809.76 957.277 1768.23 960.648 1739.13 959.267 C 1739.03 944.072 1738.96 929.273 1738.27 914.097 C 1708.91 914.2 1679.56 914.124 1650.21 913.869 C 1625.6 945.705 1604.36 969.396 1561.35 973.111 C 1502.45 978.197 1431.08 940.493 1425.71 876.268 C 1420.87 818.485 1463.28 770.07 1494.78 726.13 C 1507.16 709.17 1521.95 688.633 1535.28 672.896 z"/>
<path transform="translate(0,0)" fill="rgb(251,215,5)" d="M 1543.95 690.248 C 1560.42 692.081 1581.06 691.638 1598.58 693.096 L 1540.08 779.981 C 1554.3 779.658 1564.5 779.432 1578.14 783.502 C 1621.98 796.582 1638.75 843.585 1624.73 884.852 C 1616.31 909.648 1600.21 927.029 1576.83 938.649 C 1568.95 942.14 1560.63 944.551 1552.1 945.815 C 1505.19 952.959 1451.73 931.179 1444.82 879.53 C 1442.69 862.381 1444.72 844.972 1450.72 828.768 C 1464.27 791.201 1518.31 723.881 1543.95 690.248 z"/>
<path transform="translate(0,0)" fill="rgb(0,0,0)" d="M 1532.1 824.572 C 1545.47 823.066 1558.61 828.864 1566.51 839.751 C 1574.41 850.637 1575.84 864.931 1570.26 877.168 C 1564.68 889.405 1552.95 897.696 1539.55 898.871 C 1519.19 900.657 1501.17 885.737 1499.13 865.398 C 1497.1 845.059 1511.79 826.862 1532.1 824.572 z"/>
<path transform="translate(0,0)" fill="rgb(251,215,5)" d="M 1763.94 693.029 L 1815.91 693.083 L 1815.84 843.282 C 1824.2 843.302 1832.56 843.414 1840.92 843.618 L 1840.91 888.177 L 1815.49 888.309 C 1814.97 905.184 1815.31 923.453 1815.33 940.432 C 1796.4 940.273 1777.46 940.268 1758.53 940.416 L 1758.54 906.503 L 1758.67 887.474 C 1721.54 887.035 1684.14 887.593 1646.87 887.29 L 1647.05 840.081 C 1651.17 834.408 1655.62 828.536 1659.98 823.055 C 1694.46 779.753 1728.48 735.5 1763.94 693.029 z"/>
<path transform="translate(0,0)" fill="rgb(0,0,0)" d="M 1758.53 765.908 C 1759.54 767.413 1758.95 834.239 1758.99 842.058 L 1705.29 842.016 L 1704.32 840.599 C 1722.58 815.385 1740.53 791.603 1758.53 765.908 z"/>
</svg>